# Blender v2.82 (sub 7) OBJ File: 'rocket.blend'
# www.blender.org
mtllib rocket.mtl
o rocket_Cylinder.006
v 0.000000 0.164738 -1.013328
v 0.000000 0.206137 0.680641
v 0.142667 0.082369 -1.013328
v 0.178520 0.103069 0.680641
v 0.142667 -0.082369 -1.013328
v 0.178520 -0.103069 0.680641
v -0.000000 -0.164737 -1.013328
v -0.000000 -0.206137 0.680640
v -0.142667 -0.082369 -1.013328
v -0.178520 -0.103069 0.680641
v -0.142667 0.082369 -1.013328
v -0.178520 0.103069 0.680641
v 0.000000 0.172521 0.717332
v 0.149408 0.086260 0.717332
v 0.149408 -0.086261 0.717332
v -0.000000 -0.172521 0.717332
v -0.149408 -0.086261 0.717332
v -0.149408 0.086260 0.717332
v 0.000000 0.172520 1.267707
v 0.149408 0.086260 1.267707
v 0.149408 -0.086261 1.267707
v -0.000000 -0.172522 1.267707
v -0.149408 -0.086261 1.267707
v -0.149408 0.086260 1.267707
v -0.000000 -0.000001 2.047405
v 0.000000 0.214417 -1.013328
v 0.185690 0.107208 -1.013328
v 0.185690 -0.107208 -1.013328
v -0.000000 -0.214416 -1.013328
v -0.185690 -0.107208 -1.013328
v -0.185690 0.107208 -1.013328
v -0.000000 0.164737 -0.627133
v 0.142667 0.082369 -0.627134
v 0.142667 -0.082369 -0.627133
v -0.000000 -0.164738 -0.627134
v -0.142667 -0.082369 -0.627134
v -0.142667 0.082369 -0.627134
v -0.247904 -0.224128 -0.704247
v -0.130860 -0.107084 -0.375124
v -0.247904 -0.224128 -1.310215
v -0.130860 -0.107084 -0.981092
v -0.224128 -0.247904 -0.704247
v -0.107084 -0.130860 -0.375124
v -0.224129 -0.247904 -1.310215
v -0.107084 -0.130860 -0.981092
v -0.224128 0.247904 -0.704247
v -0.107084 0.130860 -0.375124
v -0.224129 0.247904 -1.310215
v -0.107084 0.130860 -0.981092
v -0.247904 0.224129 -0.704247
v -0.130860 0.107084 -0.375124
v -0.247904 0.224129 -1.310215
v -0.130860 0.107084 -0.981092
v 0.247904 0.224129 -0.704247
v 0.130860 0.107084 -0.375124
v 0.247904 0.224129 -1.310215
v 0.130860 0.107084 -0.981092
v 0.224128 0.247904 -0.704247
v 0.107084 0.130860 -0.375124
v 0.224129 0.247904 -1.310215
v 0.107084 0.130860 -0.981092
v 0.224128 -0.247904 -0.704247
v 0.107084 -0.130860 -0.375124
v 0.224128 -0.247904 -1.310215
v 0.107084 -0.130860 -0.981092
v 0.247904 -0.224128 -0.704247
v 0.130860 -0.107084 -0.375124
v 0.247904 -0.224128 -1.310215
v 0.130860 -0.107084 -0.981092
vn 0.5000 0.8660 0.0042
vn 1.0000 -0.0000 0.0042
vn 0.5000 -0.8660 0.0042
vn -0.5000 -0.8660 0.0042
vn 0.3917 -0.6784 0.6216
vn -1.0000 0.0000 0.0042
vn -0.5000 0.8660 0.0042
vn 1.0000 0.0000 0.0000
vn -0.3917 0.6784 0.6216
vn -0.3917 -0.6784 0.6216
vn 0.7834 -0.0000 0.6216
vn -0.7834 0.0000 0.6216
vn 0.3917 0.6784 0.6216
vn 0.4911 0.8506 0.1882
vn -1.0000 0.0000 0.0000
vn 0.5000 -0.8660 -0.0000
vn 0.5000 0.8660 0.0000
vn -0.5000 0.8660 0.0000
vn -0.5000 -0.8660 -0.0000
vn -0.4911 0.8506 0.1882
vn -0.4911 -0.8506 0.1882
vn 0.9821 -0.0000 0.1882
vn -0.9821 0.0000 0.1882
vn 0.4911 -0.8506 0.1882
vn -0.0000 0.0000 -1.0000
vn -0.7071 0.7071 0.0000
vn 0.6317 0.6317 -0.4493
vn 0.7071 -0.7071 -0.0000
vn -0.6317 -0.6317 0.4493
vn -0.7071 -0.7071 0.0000
vn 0.7071 0.7071 -0.0000
vn 0.6317 -0.6317 -0.4493
vn -0.6317 0.6317 0.4493
vn -0.6317 -0.6317 -0.4493
vn 0.6317 0.6317 0.4493
vn -0.6317 0.6317 -0.4493
vn 0.6317 -0.6317 0.4493
usemtl None
s off
f 26//1 2//1 4//1 27//1
f 27//2 4//2 6//2 28//2
f 28//3 6//3 8//3 29//3
f 29//4 8//4 10//4 30//4
f 8//5 6//5 15//5 16//5
f 30//6 10//6 12//6 31//6
f 31//7 12//7 2//7 26//7
f 9//8 11//8 37//8 36//8
f 15//8 14//8 20//8 21//8
f 2//9 12//9 18//9 13//9
f 10//10 8//10 16//10 17//10
f 6//11 4//11 14//11 15//11
f 12//12 10//12 17//12 18//12
f 4//13 2//13 13//13 14//13
f 20//14 19//14 25//14
f 18//15 17//15 23//15 24//15
f 16//16 15//16 21//16 22//16
f 14//17 13//17 19//17 20//17
f 13//18 18//18 24//18 19//18
f 17//19 16//19 22//19 23//19
f 19//20 24//20 25//20
f 23//21 22//21 25//21
f 21//22 20//22 25//22
f 24//23 23//23 25//23
f 22//24 21//24 25//24
f 3//25 1//25 26//25 27//25
f 5//25 3//25 27//25 28//25
f 7//25 5//25 28//25 29//25
f 9//25 7//25 29//25 30//25
f 11//25 9//25 30//25 31//25
f 1//25 11//25 31//25 26//25
f 32//25 33//25 34//25 35//25 36//25 37//25
f 5//18 7//18 35//18 34//18
f 1//19 3//19 33//19 32//19
f 11//16 1//16 32//16 37//16
f 7//17 9//17 36//17 35//17
f 3//15 5//15 34//15 33//15
f 38//26 39//26 41//26 40//26
f 40//27 41//27 45//27 44//27
f 44//28 45//28 43//28 42//28
f 42//29 43//29 39//29 38//29
f 40//30 44//30 42//30 38//30
f 45//31 41//31 39//31 43//31
f 46//31 47//31 49//31 48//31
f 48//32 49//32 53//32 52//32
f 52//30 53//30 51//30 50//30
f 50//33 51//33 47//33 46//33
f 48//26 52//26 50//26 46//26
f 53//28 49//28 47//28 51//28
f 54//28 55//28 57//28 56//28
f 56//34 57//34 61//34 60//34
f 60//26 61//26 59//26 58//26
f 58//35 59//35 55//35 54//35
f 56//31 60//31 58//31 54//31
f 61//30 57//30 55//30 59//30
f 62//30 63//30 65//30 64//30
f 64//36 65//36 69//36 68//36
f 68//31 69//31 67//31 66//31
f 66//37 67//37 63//37 62//37
f 64//28 68//28 66//28 62//28
f 69//26 65//26 63//26 67//26
