# Blender v2.76 (sub 0) OBJ File: 'ognemyot1.blend'
# www.blender.org
mtllib огнемёт.mtl
o Cube
v 0.322862 1.640425 5.905791
v 0.704368 2.921429 4.497456
v 0.322862 2.276094 5.905795
v 0.704368 1.197278 5.905791
v 0.704368 2.406226 5.905795
v 0.322862 1.640425 7.976433
v 0.322862 2.276094 7.976437
v 0.704368 1.197278 0.455773
v 0.704368 1.197278 4.677231
v 0.704368 1.991452 4.677230
v 0.704368 1.991452 0.455779
v 0.846273 1.047912 0.454535
v 0.846273 1.047912 4.678468
v 0.846273 1.990971 4.678467
v 0.846273 1.990971 0.454541
v 0.465882 1.499632 7.976433
v 0.465882 2.416887 7.976438
v 0.465882 1.499632 10.343493
v 0.465882 2.416887 10.343497
v 0.333736 1.629721 10.343493
v 0.333736 2.286799 10.343495
v 0.333736 1.629721 8.246837
v 0.333736 2.286799 8.246840
v 0.123828 1.293801 5.905791
v 0.123828 1.439074 5.905791
v 0.178163 1.292256 10.412765
v 0.178163 1.436423 10.315163
v 0.178163 1.547581 10.775000
v 0.178163 1.564044 10.509133
v 0.593147 2.606033 -7.197859
v 0.704368 2.921429 -5.222560
v 0.704368 2.174250 4.370654
v 0.704368 2.366368 4.370650
v 0.704368 2.574466 3.644430
v 0.704368 2.574466 -6.101785
v 0.704368 2.178419 -6.101835
v 0.745989 2.174250 4.370654
v 0.745989 2.366368 4.370650
v 0.745989 2.574466 3.644430
v 0.745989 2.574466 -6.101785
v 0.745989 2.178419 -6.101835
v 0.543856 2.973799 0.333358
v 0.543856 4.061511 0.333358
v 0.219920 3.254053 -4.252086
v 0.219920 3.693894 -4.252086
v 0.543856 2.973799 -0.604347
v 0.543856 4.061511 -0.604347
v 0.543856 2.973799 -1.162043
v 0.543856 4.061511 -1.162043
v 0.643956 2.859903 -0.604347
v 0.643956 4.177571 -0.604347
v 0.643956 2.859903 -1.162043
v 0.643956 4.177571 -1.162043
v 0.593147 1.761172 -7.197860
v 0.704368 1.197278 -5.643427
v 0.704368 2.717254 -9.017148
v 0.704368 1.649950 -10.361524
v 0.704368 2.717254 -11.535719
v 0.704368 0.164580 -11.949295
v 0.704368 0.164580 -11.467912
v 0.704368 1.684082 -7.197860
v 0.704368 2.717254 -7.197858
v 0.593147 2.606033 -9.175653
v 0.593147 1.761172 -10.230082
v 0.543856 2.973799 -4.252086
v 0.543856 4.061511 -4.252086
v 0.129076 3.344898 -4.607161
v 0.129076 3.603049 -4.607161
v 0.219920 3.254053 -4.607161
v 0.219920 3.693894 -4.607161
v 0.129076 3.337023 -5.796474
v 0.129076 3.600161 -6.018880
v 0.129076 2.487786 -6.366451
v 0.129076 2.696686 -6.675133
v 0.704368 1.197278 -3.502782
v 0.555162 0.871788 -5.253292
v 0.555162 0.871788 -3.748166
v 0.555162 -0.662665 -6.163153
v 0.555162 -0.662665 -4.658027
v 0.555162 -0.383538 -4.492517
v 0.381243 -0.569668 -3.034346
v 0.381243 -0.290540 -3.250879
v 0.381243 1.305775 -1.793627
v 0.381243 1.584902 -2.010160
v -0.322862 1.640425 5.905791
v -0.704368 2.921429 4.497456
v -0.322862 2.276094 5.905795
v -0.704368 1.197278 5.905791
v -0.704368 2.406226 5.905795
v -0.322862 1.640425 7.976433
v -0.322862 2.276094 7.976437
v -0.704368 1.197278 0.455773
v -0.704368 1.197278 4.677231
v -0.704368 1.991452 4.677230
v -0.704368 1.991452 0.455779
v -0.846273 1.047912 0.454535
v -0.846273 1.047912 4.678468
v -0.846273 1.990971 4.678467
v -0.846273 1.990971 0.454541
v -0.465882 1.499632 7.976433
v -0.465882 2.416887 7.976438
v -0.465882 1.499632 10.343493
v -0.465882 2.416887 10.343497
v -0.333736 1.629721 10.343493
v -0.333736 2.286799 10.343495
v -0.333736 1.629721 8.246837
v -0.333736 2.286799 8.246840
v -0.123828 1.293801 5.905791
v -0.123828 1.439074 5.905791
v -0.178163 1.292256 10.412765
v -0.178163 1.436423 10.315163
v -0.178163 1.547581 10.775000
v -0.178163 1.564044 10.509133
v -0.593147 2.606033 -7.197859
v -0.704368 2.921429 -5.222560
v -0.704368 2.174250 4.370654
v -0.704368 2.366368 4.370650
v -0.704368 2.574466 3.644430
v -0.704368 2.574466 -6.101785
v -0.704368 2.178419 -6.101835
v -0.745989 2.174250 4.370654
v -0.745989 2.366368 4.370650
v -0.745989 2.574466 3.644430
v -0.745989 2.574466 -6.101785
v -0.745989 2.178419 -6.101835
v -0.543856 2.973799 0.333358
v -0.543856 4.061511 0.333358
v -0.219920 3.254053 -4.252086
v -0.219920 3.693894 -4.252086
v -0.543856 2.973799 -0.604347
v -0.543856 4.061511 -0.604347
v -0.543856 2.973799 -1.162043
v -0.543856 4.061511 -1.162043
v -0.643956 2.859903 -0.604347
v -0.643956 4.177571 -0.604347
v -0.643956 2.859903 -1.162043
v -0.643956 4.177571 -1.162043
v -0.593147 1.761172 -7.197860
v -0.704368 1.197278 -5.643427
v -0.704368 2.717254 -9.017148
v -0.704368 1.649950 -10.361524
v -0.704368 2.717254 -11.535719
v -0.704368 0.164580 -11.949295
v -0.704368 0.164580 -11.467912
v -0.704368 1.684082 -7.197860
v -0.704368 2.717254 -7.197858
v -0.593147 2.606033 -9.175653
v -0.593147 1.761172 -10.230082
v -0.543856 2.973799 -4.252086
v -0.543856 4.061511 -4.252086
v -0.129076 3.344898 -4.607161
v -0.129076 3.603049 -4.607161
v -0.219920 3.254053 -4.607161
v -0.219920 3.693894 -4.607161
v -0.129076 3.337023 -5.796474
v -0.129076 3.600161 -6.018880
v -0.129076 2.487786 -6.366451
v -0.129076 2.696686 -6.675133
v -0.704368 1.197278 -3.502782
v -0.555162 0.871788 -5.253292
v -0.555162 0.871788 -3.748166
v -0.555162 -0.662665 -6.163153
v -0.555162 -0.662665 -4.658027
v -0.555162 -0.383538 -4.492517
v -0.381243 -0.569668 -3.034346
v -0.381243 -0.290540 -3.250879
v -0.381243 1.305775 -1.793627
v -0.381243 1.584902 -2.010160
vn -0.000000 -0.000000 1.000000
vn 1.000000 0.000000 0.000000
vn -0.008700 0.000000 -1.000000
vn -0.008700 0.000000 1.000000
vn 0.003400 1.000000 0.000000
vn 0.000000 0.000000 -1.000000
vn -1.000000 -0.000000 0.000000
vn 0.999900 -0.004100 -0.012200
vn 0.000000 0.000100 -1.000000
vn 0.000000 0.961300 0.275500
vn 0.000000 -1.000000 -0.000400
vn 0.000000 1.000000 0.000000
vn -0.075600 -0.779700 0.621500
vn 0.909000 -0.416700 0.000000
vn 0.992700 0.010900 0.119800
vn 0.008700 0.000000 -1.000000
vn 0.008700 0.000000 1.000000
vn -0.003400 1.000000 0.000000
vn -0.999900 -0.004100 -0.012200
vn 0.075600 -0.779700 0.621500
vn -0.909000 -0.416700 0.000000
vn -0.992700 0.010900 0.119800
vn 0.000000 -1.000000 0.000000
vn 0.000000 1.000000 -0.002000
vn 0.000000 0.587700 -0.809100
vn 0.000000 -1.000000 0.006600
vn 0.000000 -0.557300 0.830300
vn 0.000000 -0.602000 0.798500
vn 0.000000 0.008300 1.000000
vn 0.000000 0.008300 -1.000000
vn 0.000000 1.000000 0.000600
vn 0.000000 -1.000000 -0.000300
vn 0.000000 0.835400 -0.549600
vn 0.000000 -0.817400 0.576100
vn 0.000000 0.998100 0.061800
vn 0.000000 0.939100 0.343600
vn 0.000000 -0.551700 0.834000
vn 0.000000 0.551700 -0.834000
vn 0.000000 0.510000 -0.860200
vn 0.000000 -0.510000 0.860200
vn 0.000000 0.997200 -0.074700
vn 0.000000 -0.998400 0.057200
vn 0.000000 -0.767900 -0.640600
vn 0.000000 -0.954300 -0.298900
vn 0.000000 0.994700 -0.102800
vn 0.000000 -0.763400 0.645900
vn 0.000000 -0.818600 0.574400
vn 0.000000 -0.597400 0.802000
vn 0.000000 0.159900 -0.987100
usemtl Material
s off
f 3//1 1//1 4//1 5//1
f 1//2 3//2 7//2 6//2
f 8//3 11//3 15//3 12//3
f 12//2 15//2 14//2 13//2
f 10//4 9//4 13//4 14//4
f 11//5 10//5 14//5 15//5
f 6//6 7//6 17//6 16//6
f 16//2 17//2 19//2 18//2
f 18//1 19//1 21//1 20//1
f 20//7 21//7 23//7 22//7
f 1//1 25//1 24//1 4//1
f 26//2 27//2 29//2 28//2
f 24//8 25//8 27//8 26//8
f 37//2 41//2 40//2 39//2 38//2
f 36//9 35//9 40//9 41//9
f 34//10 33//10 38//10 39//10
f 32//11 36//11 41//11 37//11
f 35//12 34//12 39//12 40//12
f 33//1 32//1 37//1 38//1
f 45//2 44//2 69//2 70//2
f 46//2 47//2 43//2 42//2
f 48//6 49//6 53//6 52//6
f 65//2 66//2 49//2 48//2
f 52//2 53//2 51//2 50//2
f 47//1 46//1 50//1 51//1
f 31//2 2//2 5//2 33//2 34//2 35//2 36//2 61//2 62//2
f 61//2 36//2 32//2 33//2 5//2 4//2 9//2 10//2 11//2 8//2 75//2 55//2
f 56//2 57//2 60//2 59//2 58//2
f 54//6 30//6 62//6 61//6
f 30//2 54//2 64//2 63//2
f 56//13 63//13 64//13 57//13
f 44//6 45//6 66//6 65//6
f 67//6 68//6 70//6 69//6
f 72//2 71//2 73//2 74//2
f 68//2 67//2 71//2 72//2
f 76//2 77//2 80//2 79//2 78//2
f 55//14 75//14 77//14 76//14
f 79//15 80//15 82//15 81//15
f 81//2 82//2 84//2 83//2
f 87//1 89//1 88//1 85//1
f 85//7 90//7 91//7 87//7
f 92//16 96//16 99//16 95//16
f 96//7 97//7 98//7 99//7
f 94//17 98//17 97//17 93//17
f 95//18 99//18 98//18 94//18
f 90//6 100//6 101//6 91//6
f 100//7 102//7 103//7 101//7
f 102//1 104//1 105//1 103//1
f 104//2 106//2 107//2 105//2
f 85//1 88//1 108//1 109//1
f 110//7 112//7 113//7 111//7
f 108//19 110//19 111//19 109//19
f 121//7 122//7 123//7 124//7 125//7
f 120//9 125//9 124//9 119//9
f 118//10 123//10 122//10 117//10
f 116//11 121//11 125//11 120//11
f 119//12 124//12 123//12 118//12
f 117//1 122//1 121//1 116//1
f 129//7 154//7 153//7 128//7
f 130//7 126//7 127//7 131//7
f 132//6 136//6 137//6 133//6
f 149//7 132//7 133//7 150//7
f 136//7 134//7 135//7 137//7
f 131//1 135//1 134//1 130//1
f 115//7 146//7 145//7 120//7 119//7 118//7 117//7 89//7 86//7
f 145//7 139//7 159//7 92//7 95//7 94//7 93//7 88//7 89//7 117//7 116//7 120//7
f 140//7 142//7 143//7 144//7 141//7
f 138//6 145//6 146//6 114//6
f 114//7 147//7 148//7 138//7
f 140//20 141//20 148//20 147//20
f 128//6 149//6 150//6 129//6
f 151//6 153//6 154//6 152//6
f 156//7 158//7 157//7 155//7
f 152//7 156//7 155//7 151//7
f 160//7 162//7 163//7 164//7 161//7
f 139//21 160//21 161//21 159//21
f 163//22 165//22 166//22 164//22
f 165//7 167//7 168//7 166//7
f 43//12 47//12 131//12 127//12
f 46//23 42//23 126//23 130//23
f 42//1 43//1 127//1 126//1
f 47//1 51//1 135//1 131//1
f 46//1 130//1 134//1 50//1
f 48//6 52//6 136//6 132//6
f 65//23 48//23 132//23 149//23
f 65//6 149//6 128//6 44//6
f 69//23 44//23 128//23 153//23
f 69//6 153//6 151//6 67//6
f 52//23 50//23 134//23 136//23
f 49//6 133//6 137//6 53//6
f 51//12 53//12 137//12 135//12
f 49//12 66//12 150//12 133//12
f 45//6 129//6 150//6 66//6
f 45//12 70//12 154//12 129//12
f 68//6 152//6 154//6 70//6
f 72//24 156//24 152//24 68//24
f 72//25 74//25 158//25 156//25
f 71//26 67//26 151//26 155//26
f 73//27 71//27 155//27 157//27
f 75//28 159//28 161//28 77//28
f 9//29 93//29 97//29 13//29
f 12//30 96//30 92//30 8//30
f 13//23 97//23 96//23 12//23
f 4//23 88//23 93//23 9//23
f 24//1 108//1 88//1 4//1
f 1//1 85//1 109//1 25//1
f 6//23 90//23 85//23 1//23
f 6//6 16//6 100//6 90//6
f 6//6 90//6 91//6 7//6
f 25//31 109//31 111//31 27//31
f 26//32 110//32 108//32 24//32
f 23//1 107//1 106//1 22//1
f 20//12 22//12 106//12 104//12
f 21//23 105//23 107//23 23//23
f 7//6 91//6 101//6 17//6
f 19//1 103//1 105//1 21//1
f 17//12 101//12 103//12 19//12
f 29//33 27//33 111//33 113//33
f 26//34 28//34 112//34 110//34
f 29//35 113//35 112//35 28//35
f 20//1 104//1 102//1 18//1
f 18//23 102//23 100//23 16//23
f 91//12 7//12 3//12 87//12
f 3//1 5//1 89//1 87//1
f 2//36 86//36 89//36 5//36
f 2//12 31//12 115//12 86//12
f 83//37 167//37 165//37 81//37
f 82//38 166//38 168//38 84//38
f 79//23 163//23 162//23 78//23
f 76//39 78//39 162//39 160//39
f 80//40 77//40 161//40 164//40
f 80//41 164//41 166//41 82//41
f 81//42 165//42 163//42 79//42
f 8//23 92//23 159//23 75//23
f 55//43 76//43 160//43 139//43
f 55//44 139//44 145//44 61//44
f 54//6 61//6 145//6 138//6
f 31//45 62//45 146//45 115//45
f 62//6 30//6 114//6 146//6
f 63//12 147//12 114//12 30//12
f 54//23 138//23 148//23 64//23
f 64//46 148//46 141//46 57//46
f 63//47 56//47 140//47 147//47
f 56//12 58//12 142//12 140//12
f 60//48 57//48 141//48 144//48
f 59//23 60//23 144//23 143//23
f 58//49 59//49 143//49 142//49
