# Blender v2.76 (sub 0) OBJ File: 'ручная_мортира_вариант_1.blend'
# www.blender.org
mtllib ручная_мортира_вариант_1.mtl
o Cube
v 0.375000 0.242534 -1.622170
v 0.375000 0.242534 1.622170
v -0.375000 0.242534 1.622169
v -0.375000 0.242534 -1.622170
v 0.375000 0.449619 -1.622169
v 0.375000 0.449619 1.622171
v -0.375000 0.449619 1.622169
v -0.375000 0.449619 -1.622170
v 0.375000 1.402358 -1.622169
v 0.375000 1.402358 1.622171
v -0.375000 1.402358 -1.622170
v -0.375000 1.402358 1.622169
v 0.375000 0.520746 1.622171
v -0.375000 0.520746 1.622169
v 0.375000 0.666307 1.622171
v -0.375000 0.666307 1.622169
v 0.374994 1.402358 4.388127
v -0.375006 1.402358 4.388125
v 0.374994 0.666307 4.388127
v -0.375006 0.666307 4.388125
v 0.374993 1.402358 4.936603
v -0.375007 1.402358 4.936601
v 0.374993 0.666307 4.936603
v -0.375007 0.666307 4.936601
v 0.375000 0.541376 -1.622169
v -0.375000 0.541376 -1.622170
v 0.375000 0.754893 -1.622169
v -0.375000 0.754893 -1.622170
v 0.375002 1.402358 -3.547677
v -0.374998 1.402358 -3.547678
v 0.375002 0.754893 -3.547677
v -0.374998 0.754893 -3.547678
v -0.164658 1.402358 4.936601
v 0.164648 1.402358 4.936603
v -0.164657 1.402358 4.388125
v 0.164649 1.402358 4.388127
v 0.172265 0.242534 0.661490
v 0.172265 0.242534 1.088971
v -0.172264 0.242534 0.661490
v -0.172265 0.242534 1.088971
v 0.172265 0.070557 0.590171
v 0.172265 0.070557 1.017653
v -0.172264 0.070557 0.590171
v -0.172265 0.070557 1.017653
v 0.375002 0.449619 -3.783105
v -0.374998 0.449619 -3.783106
v 0.375002 0.541376 -3.783105
v -0.374998 0.541376 -3.783106
v 0.375002 0.449619 -3.901729
v -0.374998 0.449619 -3.901729
v 0.375002 0.541376 -3.901729
v -0.374998 0.541376 -3.901729
v 0.375002 0.757415 -3.783105
v -0.374998 0.757415 -3.783106
v 0.375002 0.757415 -3.901729
v -0.374998 0.757415 -3.901729
v 0.375002 1.397729 -3.783105
v -0.374998 1.397729 -3.783106
v 0.375002 1.397729 -3.901729
v -0.374998 1.397729 -3.901729
v 0.164653 1.402358 -3.547677
v -0.164653 1.402358 -3.547678
v 0.164653 1.397729 -3.783106
v -0.164653 1.397729 -3.783106
v 0.164653 1.616796 -3.785259
v 0.164653 1.621426 -3.549830
v -0.164653 1.621426 -3.549831
v -0.164653 1.616796 -3.785260
v -0.164658 1.621426 4.934447
v -0.164657 1.621426 4.385972
v 0.164649 1.621426 4.385973
v 0.164648 1.621426 4.934449
v 0.639038 1.607476 -3.902306
v 0.639038 1.613755 0.418944
v -0.639030 1.613755 0.418944
v -0.639030 1.607476 -3.902307
v -0.639046 1.613755 5.055774
v 0.639022 1.613755 5.055776
v 0.639038 2.799627 -3.902306
v 0.639038 2.805906 0.418944
v -0.639030 2.805906 0.418944
v -0.639030 2.799627 -3.902307
v -0.639046 2.805906 5.055774
v 0.639022 2.805906 5.055776
v 0.521203 1.723654 5.055776
v -0.521227 1.723654 5.055774
v 0.521203 2.696008 5.055776
v -0.521227 2.696008 5.055774
v 0.521209 1.723654 -0.380709
v -0.521222 1.723654 -0.380712
v 0.521209 2.696008 -0.380709
v -0.521222 2.696008 -0.380712
v 0.124409 0.666307 1.739655
v -0.124414 0.666307 1.739654
v 0.124407 0.666307 4.270642
v -0.124416 0.666307 4.270640
v 0.124409 0.514434 1.739655
v -0.124414 0.514434 1.739654
v 0.124407 0.514434 4.270642
v -0.124416 0.514434 4.270640
v 0.124409 0.361639 1.739655
v -0.124414 0.361639 1.739654
v 0.124407 0.361639 4.270642
v -0.124416 0.361639 4.270640
v 0.124411 0.514434 1.501709
v -0.124412 0.514434 1.501708
v 0.124411 0.361639 1.501709
v -0.124412 0.361639 1.501708
v 0.124402 0.514434 4.992354
v -0.124421 0.514434 4.992352
v 0.124402 0.361639 4.992354
v -0.124421 0.361639 4.992352
v 0.124401 0.514434 5.129589
v -0.124422 0.514434 5.129587
v 0.124401 0.361639 5.129589
v -0.124422 0.361639 5.129587
v 0.124402 0.937743 4.992354
v -0.124421 0.937743 4.992352
v 0.124401 0.937743 5.129589
v -0.124422 0.937743 5.129587
v 0.124402 1.048424 4.992354
v -0.124421 1.048424 4.992352
v 0.124401 1.048424 5.129589
v -0.124422 1.048424 5.129587
v 0.124403 0.937743 4.798269
v -0.124420 0.937743 4.798267
v 0.124403 1.048424 4.798269
v -0.124420 1.048424 4.798267
v 0.375000 0.518268 -1.529534
v 0.375000 0.518268 1.529536
v -0.375000 0.518268 1.529534
v -0.375000 0.518268 -1.529535
v 0.375000 1.333709 -1.529534
v 0.375000 1.333709 1.529536
v -0.375000 1.333709 1.529534
v -0.375000 1.333709 -1.529535
v 0.448150 0.518268 -1.529534
v 0.448150 0.518268 1.529536
v -0.448151 0.518268 1.529534
v -0.448150 0.518268 -1.529535
v 0.448150 1.333709 -1.529534
v 0.448150 1.333709 1.529536
v -0.448151 1.333709 1.529534
v -0.448150 1.333709 -1.529535
v -0.375000 0.950324 1.825235
v -0.375000 1.118342 1.825235
v 0.375000 0.950324 1.825237
v 0.375000 1.118342 1.825237
v -0.375006 0.950324 4.185060
v -0.375006 1.118342 4.185060
v 0.374994 0.950324 4.185061
v 0.374994 1.118342 4.185061
v -0.442680 0.950324 1.825235
v -0.442680 1.118342 1.825235
v 0.442681 0.950324 1.825237
v 0.442681 1.118342 1.825237
v -0.442687 0.950324 4.185060
v -0.442687 1.118342 4.185060
v 0.442674 0.950324 4.185061
v 0.442674 1.118342 4.185061
v 0.375000 1.264001 -2.224776
v 0.375000 0.893250 -2.224776
v -0.375000 0.893250 -2.224776
v -0.375000 1.264001 -2.224776
v 0.375002 1.264001 -2.945070
v 0.375002 0.893250 -2.945070
v -0.374998 0.893250 -2.945071
v -0.374998 1.264001 -2.945071
v 0.506870 1.402358 -3.547677
v 0.506870 0.754893 -3.547677
v -0.506866 0.754893 -3.547678
v -0.506866 1.402358 -3.547678
v 0.506870 1.264001 -2.945070
v 0.506870 0.893250 -2.945070
v -0.506866 0.893250 -2.945071
v -0.506866 1.264001 -2.945071
v 0.448150 0.518268 -0.685878
v 0.448150 0.518268 0.666651
v -0.448151 0.518268 0.666651
v -0.448150 0.518268 -0.685879
v 0.448150 1.333709 -0.685878
v 0.448150 1.333709 0.666651
v -0.448151 1.333709 0.666651
v -0.448150 1.333709 -0.685879
v -0.448150 1.279462 -1.473411
v -0.448150 0.572515 -1.473411
v 0.448150 1.279462 -1.473410
v 0.448150 0.572515 -1.473410
v -0.448150 1.279462 -0.742003
v -0.448150 0.572515 -0.742003
v 0.448150 1.279462 -0.742003
v 0.448150 0.572515 -0.742003
v -0.482860 1.279462 -1.473411
v -0.482860 0.572515 -1.473411
v 0.482861 1.279462 -1.473410
v 0.482861 0.572515 -1.473410
v -0.482860 1.279462 -0.742003
v -0.482860 0.572515 -0.742003
v 0.482861 1.279462 -0.742003
v 0.482861 0.572515 -0.742003
v -0.448151 0.788902 1.529534
v -0.448151 1.063074 1.529534
v 0.448150 0.788902 1.529536
v 0.448150 1.063074 1.529536
v -0.448151 0.788902 0.666651
v -0.448151 1.063074 0.666651
v 0.448150 0.788902 0.666651
v 0.448150 1.063074 0.666651
v -0.524227 0.788902 1.529534
v -0.524227 1.063074 1.529534
v 0.524226 0.788902 1.529536
v 0.524226 1.063074 1.529536
v -0.524227 0.788902 0.666651
v -0.524227 1.063074 0.666651
v 0.524226 0.788902 0.666651
v 0.524226 1.063074 0.666651
v -0.675397 0.788902 1.529534
v -0.675397 1.063074 1.529534
v 0.675397 0.788902 1.529536
v 0.675397 1.063074 1.529536
v -0.675397 0.788902 0.666651
v -0.675397 1.063074 0.666651
v 0.675397 0.788902 0.666651
v 0.675397 1.063074 0.666651
v -0.524227 0.788902 -1.009690
v -0.524227 1.063074 -1.009690
v 0.524226 0.788902 -1.009690
v 0.524226 1.063074 -1.009690
v -0.675397 0.788902 -1.009690
v -0.675397 1.063074 -1.009690
v 0.675397 0.788902 -1.009690
v 0.675397 1.063074 -1.009690
v -0.524227 0.788902 -1.232471
v -0.524227 1.063074 -1.232471
v 0.524226 0.788902 -1.232470
v 0.524226 1.063074 -1.232470
v -0.675397 0.788902 -1.232471
v -0.675397 1.063074 -1.232471
v 0.675397 0.788902 -1.232470
v 0.675397 1.063074 -1.232470
v -0.350642 0.788902 -1.009690
v -0.350642 1.063074 -1.009690
v 0.350642 0.788902 -1.009690
v 0.350642 1.063074 -1.009690
v -0.350642 0.788902 -1.232471
v -0.350642 1.063074 -1.232471
v 0.350642 0.788902 -1.232470
v 0.350642 1.063074 -1.232470
v 0.172265 -0.252635 0.590171
v 0.172265 -0.252635 1.017653
v -0.172264 -0.252635 0.590171
v -0.172265 -0.252635 1.017653
v 0.172265 -0.534972 0.661490
v 0.172265 -0.534972 1.088971
v -0.172264 -0.534972 0.661490
v -0.172265 -0.534972 1.088971
v 0.639038 1.714887 -3.787165
v 0.639038 1.720043 0.469276
v -0.639030 1.720043 0.469276
v -0.639030 1.714887 -3.787165
v -0.639046 1.720043 4.890301
v 0.639022 1.720043 4.890303
v 0.639038 2.693715 -3.787165
v 0.639038 2.698870 0.469276
v -0.639030 2.698870 0.469276
v -0.639030 2.693715 -3.787165
v -0.639046 2.698870 4.890301
v 0.639022 2.698870 4.890303
v 0.709349 1.875071 -3.787165
v 0.709349 1.878551 0.469276
v -0.709340 1.878551 0.469276
v -0.709339 1.875071 -3.787165
v -0.709357 1.878551 4.890301
v 0.709331 1.878551 4.890303
v 0.709349 2.535765 -3.787165
v 0.709349 2.539245 0.469276
v -0.709340 2.539245 0.469276
v -0.709339 2.535765 -3.787165
v -0.709357 2.539245 4.890301
v 0.709331 2.539245 4.890303
v 0.472624 2.799627 -3.788990
v 0.472624 2.805906 0.421641
v -0.472619 2.805906 0.421641
v -0.472619 2.799627 -3.788991
v 0.472612 2.805906 4.939777
v -0.472630 2.805906 4.939775
v 0.348100 2.867353 -3.789119
v 0.348099 2.873632 0.421513
v -0.348096 2.873632 0.421513
v -0.348096 2.867353 -3.789119
v 0.348091 2.873632 4.939648
v -0.348105 2.873632 4.939646
vn 0.000000 -1.000000 0.000000
vn 1.000000 0.000000 0.000000
vn -0.000000 -0.000000 1.000000
vn -1.000000 -0.000000 -0.000000
vn 0.000000 0.000000 -1.000000
vn 0.000000 1.000000 0.000000
vn 0.000000 -0.974200 0.225700
vn 0.000000 -0.974600 0.223800
vn -0.000000 0.009800 1.000000
vn 0.000000 0.383100 -0.923700
vn 0.000000 -0.383100 0.923700
vn 0.000000 -0.999900 -0.010700
vn 0.000000 0.999800 -0.019700
vn 0.000000 -0.000100 1.000000
vn -0.000000 0.998000 0.063100
vn 0.000000 -0.009800 -1.000000
vn -0.000000 -1.000000 0.001500
vn 0.000000 0.996800 -0.079400
vn 0.027600 0.999600 -0.002400
vn -0.000000 1.000000 0.001900
vn -0.027600 0.999600 -0.002400
vn -0.016200 0.999900 -0.000000
vn 0.000000 1.000000 -0.001900
vn 0.016200 0.999900 0.000000
vn 0.000000 0.974600 0.223800
vn 0.000000 0.244900 0.969500
vn 0.000000 -0.244900 -0.969500
vn -0.914400 0.404900 -0.000400
vn -0.914900 -0.403700 0.000400
vn -0.914100 -0.405500 -0.000000
vn -0.915200 0.403100 -0.000000
vn 0.914100 -0.405500 0.000000
vn 0.914900 -0.403700 0.000400
vn 0.915200 0.403100 0.000000
vn 0.914400 0.404900 -0.000400
vn -0.477800 0.878500 -0.000000
vn 0.000500 1.000000 -0.001500
vn -0.000500 1.000000 -0.001500
vn 0.000000 1.000000 -0.000700
vn 0.000000 -0.001900 -1.000000
vn 0.477800 0.878500 -0.001300
vn 0.477800 0.878500 0.000000
vn -0.000000 0.001900 1.000000
vn -0.477800 0.878500 -0.001300
usemtl Material
s off
f 1//1 2//1 38//1 37//1
f 5//2 9//2 133//2 129//2
f 1//2 5//2 6//2 2//2
f 2//3 6//3 7//3 3//3
f 3//4 7//4 8//4 4//4
f 5//5 1//5 4//5 8//5
f 9//6 11//6 12//6 10//6
f 11//6 9//6 29//6 30//6
f 12//2 7//2 14//2 16//2
f 8//4 7//4 131//4 132//4
f 14//3 13//3 15//3 16//3
f 10//6 12//6 18//6 17//6
f 7//3 6//3 13//3 14//3
f 6//2 10//2 15//2 13//2
f 19//2 17//2 21//2 23//2
f 10//2 17//2 152//2 148//2
f 15//1 19//1 95//1 93//1
f 19//2 15//2 147//2 151//2
f 21//3 22//3 24//3 23//3
f 20//1 19//1 23//1 24//1
f 18//4 20//4 24//4 22//4
f 57//7 58//7 64//7 63//7
f 25//5 26//5 28//5 27//5
f 26//6 25//6 47//6 48//6
f 9//4 5//4 25//4 27//4
f 8//4 11//4 28//4 26//4
f 18//6 22//6 33//6 35//6
f 166//8 31//8 170//8 174//8
f 27//1 28//1 32//1 31//1
f 11//4 30//4 168//4 164//4
f 22//6 21//6 34//6 33//6
f 21//6 17//6 36//6 34//6
f 35//4 33//4 69//4 70//4
f 33//9 34//9 72//9 69//9
f 37//2 38//2 42//2 41//2
f 3//1 4//1 39//1 40//1
f 2//1 3//1 40//1 38//1
f 4//1 1//1 37//1 39//1
f 42//3 44//3 252//3 250//3
f 40//4 39//4 43//4 44//4
f 39//10 37//10 41//10 43//10
f 38//11 40//11 44//11 42//11
f 46//4 48//4 52//4 50//4
f 5//1 8//1 46//1 45//1
f 25//2 5//2 45//2 47//2
f 8//4 26//4 48//4 46//4
f 49//5 50//5 52//5 51//5
f 45//1 46//1 50//1 49//1
f 47//2 45//2 49//2 51//2
f 47//2 51//2 55//2 53//2
f 55//5 56//5 60//5 59//5
f 51//5 52//5 56//5 55//5
f 48//3 47//3 53//3 54//3
f 52//4 48//4 54//4 56//4
f 58//6 57//6 59//6 60//6
f 56//4 54//4 58//4 60//4
f 54//5 58//5 57//5 53//5
f 53//2 55//2 59//2 57//2
f 32//4 30//4 58//4 54//4
f 31//12 32//12 54//12 53//12
f 29//2 31//2 53//2 57//2
f 29//13 57//13 63//13 61//13
f 30//6 29//6 61//6 62//6
f 58//13 30//13 62//13 64//13
f 17//14 18//14 35//14 36//14
f 69//15 77//15 78//15 72//15
f 63//16 64//16 68//16 65//16
f 61//2 63//2 65//2 66//2
f 36//16 35//16 70//16 71//16
f 34//2 36//2 71//2 72//2
f 62//9 61//9 66//9 67//9
f 64//4 62//4 67//4 68//4
f 75//17 76//17 73//17 74//17
f 65//18 73//18 76//18 68//18
f 66//19 74//19 73//19 65//19
f 67//20 75//20 74//20 66//20
f 68//21 76//21 75//21 67//21
f 70//22 75//22 77//22 69//22
f 74//1 78//1 77//1 75//1
f 71//23 74//23 75//23 70//23
f 72//24 78//24 74//24 71//24
f 83//4 81//4 265//4 267//4
f 78//2 74//2 258//2 262//2
f 84//3 87//3 85//3 78//3
f 73//5 76//5 82//5 79//5
f 79//2 80//2 264//2 263//2
f 77//4 83//4 267//4 261//4
f 84//6 80//6 282//6 285//6
f 86//2 90//2 92//2 88//2
f 78//3 85//3 86//3 77//3
f 83//3 88//3 87//3 84//3
f 77//3 86//3 88//3 83//3
f 89//3 91//3 92//3 90//3
f 88//1 92//1 91//1 87//1
f 87//4 91//4 89//4 85//4
f 85//6 89//6 90//6 86//6
f 96//4 94//4 98//4 100//4
f 19//1 20//1 96//1 95//1
f 20//1 16//1 94//1 96//1
f 16//1 15//1 93//1 94//1
f 97//2 99//2 103//2 101//2
f 94//5 93//5 97//5 98//5
f 93//2 95//2 99//2 97//2
f 95//3 96//3 100//3 99//3
f 102//1 101//1 103//1 104//1
f 100//4 104//4 112//4 110//4
f 100//4 98//4 102//4 104//4
f 101//1 102//1 108//1 107//1
f 106//5 105//5 107//5 108//5
f 102//4 98//4 106//4 108//4
f 97//2 101//2 107//2 105//2
f 98//6 97//6 105//6 106//6
f 110//4 112//4 116//4 114//4
f 99//6 100//6 110//6 109//6
f 103//2 99//2 109//2 111//2
f 104//1 103//1 111//1 112//1
f 113//3 114//3 116//3 115//3
f 112//1 111//1 115//1 116//1
f 111//2 109//2 113//2 115//2
f 114//3 113//3 119//3 120//3
f 119//2 117//2 121//2 123//2
f 113//2 109//2 117//2 119//2
f 110//4 114//4 120//4 118//4
f 109//5 110//5 118//5 117//5
f 121//6 122//6 124//6 123//6
f 120//3 119//3 123//3 124//3
f 118//4 120//4 124//4 122//4
f 121//2 117//2 125//2 127//2
f 125//5 126//5 128//5 127//5
f 122//6 121//6 127//6 128//6
f 118//4 122//4 128//4 126//4
f 117//1 118//1 126//1 125//1
f 136//5 132//5 140//5 144//5
f 134//3 130//3 138//3 142//3
f 7//4 12//4 135//4 131//4
f 9//2 10//2 134//2 133//2
f 10//2 6//2 130//2 134//2
f 6//2 5//2 129//2 130//2
f 11//4 8//4 132//4 136//4
f 12//4 11//4 136//4 135//4
f 180//4 184//4 189//4 190//4
f 140//6 139//6 179//6 180//6
f 135//6 136//6 144//6 143//6
f 132//1 131//1 139//1 140//1
f 129//5 133//5 141//5 137//5
f 131//3 135//3 143//3 139//3
f 133//6 134//6 142//6 141//6
f 130//1 129//1 137//1 138//1
f 150//6 146//6 154//6 158//6
f 145//1 149//1 157//1 153//1
f 17//2 19//2 151//2 152//2
f 12//4 16//4 145//4 146//4
f 16//4 20//4 149//4 145//4
f 18//4 12//4 146//4 150//4
f 20//4 18//4 150//4 149//4
f 15//2 10//2 148//2 147//2
f 154//4 153//4 157//4 158//4
f 155//2 156//2 160//2 159//2
f 149//3 150//3 158//3 157//3
f 146//5 145//5 153//5 154//5
f 151//1 147//1 155//1 159//1
f 148//6 152//6 160//6 156//6
f 152//3 151//3 159//3 160//3
f 147//5 148//5 156//5 155//5
f 163//4 164//4 168//4 167//4
f 161//2 162//2 166//2 165//2
f 28//4 11//4 164//4 163//4
f 32//4 28//4 163//4 167//4
f 29//2 9//2 161//2 165//2
f 30//5 32//5 171//5 172//5
f 27//2 31//2 166//2 162//2
f 9//2 27//2 162//2 161//2
f 172//4 171//4 175//4 176//4
f 170//2 169//2 173//2 174//2
f 167//3 168//3 176//3 175//3
f 32//8 167//8 175//8 171//8
f 168//25 30//25 172//25 176//25
f 31//5 29//5 169//5 170//5
f 29//25 165//25 173//25 169//25
f 165//3 166//3 174//3 173//3
f 180//4 179//4 183//4 184//4
f 178//2 177//2 181//2 182//2
f 138//2 178//2 207//2 203//2
f 141//3 142//3 182//3 181//3
f 138//3 137//3 177//3 178//3
f 178//3 182//3 208//3 207//3
f 140//4 180//4 190//4 186//4
f 143//3 144//3 184//3 183//3
f 190//3 189//3 197//3 198//3
f 186//1 190//1 198//1 194//1
f 137//2 141//2 187//2 188//2
f 141//2 181//2 191//2 187//2
f 181//2 177//2 192//2 191//2
f 184//4 144//4 185//4 189//4
f 144//4 140//4 186//4 185//4
f 177//2 137//2 188//2 192//2
f 196//2 195//2 199//2 200//2
f 193//4 194//4 198//4 197//4
f 185//5 186//5 194//5 193//5
f 189//6 185//6 193//6 197//6
f 187//6 191//6 199//6 195//6
f 191//3 192//3 200//3 199//3
f 188//5 187//5 195//5 196//5
f 192//1 188//1 196//1 200//1
f 207//5 208//5 216//5 215//5
f 202//6 206//6 214//6 210//6
f 143//4 183//4 206//4 202//4
f 139//3 143//3 202//3 201//3
f 179//4 139//4 201//4 205//4
f 142//4 138//4 203//4 204//4
f 183//4 179//4 205//4 206//4
f 182//2 142//2 204//2 208//2
f 211//1 215//1 223//1 219//1
f 209//3 210//3 218//3 217//3
f 204//3 203//3 211//3 212//3
f 208//6 204//6 212//6 216//6
f 205//1 201//1 209//1 213//1
f 206//5 205//5 213//5 214//5
f 201//3 202//3 210//3 209//3
f 203//1 207//1 215//1 211//1
f 217//4 218//4 222//4 221//4
f 220//2 219//2 223//2 224//2
f 210//6 214//6 222//6 218//6
f 216//6 224//6 232//6 228//6
f 212//3 211//3 219//3 220//3
f 216//6 212//6 220//6 224//6
f 213//1 209//1 217//1 221//1
f 213//1 221//1 229//1 225//1
f 228//6 232//6 240//6 236//6
f 225//1 233//1 245//1 241//1
f 221//4 222//4 230//4 229//4
f 215//4 216//4 228//4 227//4
f 224//2 223//2 231//2 232//2
f 222//6 214//6 226//6 230//6
f 223//1 215//1 227//1 231//1
f 214//2 213//2 225//2 226//2
f 235//5 236//5 240//5 239//5
f 234//5 233//5 237//5 238//5
f 231//1 227//1 235//1 239//1
f 229//4 230//4 238//4 237//4
f 227//3 228//3 244//3 243//3
f 225//1 229//1 237//1 233//1
f 230//6 226//6 234//6 238//6
f 232//2 231//2 239//2 240//2
f 243//4 244//4 248//4 247//4
f 242//2 241//2 245//2 246//2
f 236//5 235//5 247//5 248//5
f 228//6 236//6 248//6 244//6
f 226//3 225//3 241//3 242//3
f 234//6 226//6 242//6 246//6
f 233//5 234//5 246//5 245//5
f 235//1 227//1 243//1 247//1
f 250//26 252//26 256//26 254//26
f 41//2 42//2 250//2 249//2
f 44//4 43//4 251//4 252//4
f 43//5 41//5 249//5 251//5
f 253//1 254//1 256//1 255//1
f 249//2 250//2 254//2 253//2
f 252//4 251//4 255//4 256//4
f 251//27 249//27 253//27 255//27
f 261//3 267//3 279//3 273//3
f 265//28 266//28 278//28 277//28
f 268//3 262//3 274//3 280//3
f 260//29 259//29 271//29 272//29
f 73//2 79//2 263//2 257//2
f 81//4 82//4 266//4 265//4
f 82//4 76//4 260//4 266//4
f 80//2 84//2 268//2 264//2
f 74//2 73//2 257//2 258//2
f 84//2 78//2 262//2 268//2
f 75//4 77//4 261//4 259//4
f 76//4 75//4 259//4 260//4
f 274//2 270//2 276//2 280//2
f 272//4 271//4 277//4 278//4
f 273//4 279//4 277//4 271//4
f 270//2 269//2 275//2 276//2
f 259//30 261//30 273//30 271//30
f 267//31 265//31 277//31 279//31
f 257//5 263//5 275//5 269//5
f 262//32 258//32 270//32 274//32
f 266//5 260//5 272//5 278//5
f 258//33 257//33 269//33 270//33
f 264//34 268//34 280//34 276//34
f 263//35 264//35 276//35 275//35
f 283//36 286//36 292//36 289//36
f 83//6 84//6 285//6 286//6
f 82//37 81//37 283//37 284//37
f 81//6 83//6 286//6 283//6
f 79//6 82//6 284//6 281//6
f 80//38 79//38 281//38 282//38
f 287//39 290//39 289//39 292//39 291//39 288//39
f 281//40 284//40 290//40 287//40
f 282//41 281//41 287//41 288//41
f 285//42 282//42 288//42 291//42
f 286//43 285//43 291//43 292//43
f 284//44 283//44 289//44 290//44
