# Blender v2.82 (sub 7) OBJ File: ''
# www.blender.org
mtllib молот.mtl
o Cube.001
v 0.310852 2.259353 -0.310852
v 0.310852 2.259353 0.310853
v -0.310853 2.259353 0.310852
v -0.310852 2.259353 -0.310853
v 0.310853 3.834355 -0.310852
v 0.310852 3.834355 0.310853
v -0.310853 3.834355 0.310852
v -0.310853 3.834355 -0.310852
v 1.412727 3.873575 -2.277558
v 1.412726 3.873575 2.060410
v -1.412726 3.873575 -2.277559
v -1.412727 3.873575 2.060409
v 1.412727 5.821393 -2.277558
v 1.412726 5.821393 2.060410
v -1.412726 5.821393 -2.277559
v -1.412727 5.821393 2.060409
v 1.233997 3.996788 2.222432
v -1.233998 3.996788 2.222431
v 1.233997 5.698180 2.222432
v -1.233998 5.698180 2.222431
v 0.837464 4.270152 -3.519928
v -0.837463 4.270152 -3.519929
v 0.837464 5.424817 -3.519928
v -0.837463 5.424817 -3.519929
v 0.250892 5.413653 -5.026823
v -0.250888 5.413653 -5.026823
v 0.250892 5.623217 -4.751609
v -0.250889 5.623218 -4.751609
v 0.089668 5.882943 -5.244467
v -0.089662 5.882942 -5.244468
v 0.089668 5.957839 -5.146110
v -0.089663 5.957839 -5.146110
v -0.000000 3.834355 2.060410
v -0.000000 5.860613 2.060410
v -1.469618 4.847484 2.060409
v 1.469617 4.847484 2.060410
v -1.351808 3.915571 2.125287
v -1.351808 5.779397 2.125287
v 1.351807 5.779397 2.125287
v 1.351807 3.915571 2.125287
v -0.000001 3.996788 2.222432
v -0.000001 5.698180 2.222432
v -1.233998 4.847484 2.222431
v 1.233997 4.847484 2.222432
v -0.000001 4.847484 2.214670
v -0.000000 3.915571 2.125287
v 1.351807 4.847484 2.125287
v -0.000000 5.779397 2.125287
v -1.351808 4.847484 2.125287
v 0.310852 1.969922 -0.310852
v 0.310852 1.969922 0.310853
v -0.310852 1.969922 -0.310853
v -0.310853 1.969922 0.310852
v 0.310852 -3.321523 -0.310852
v 0.310852 -3.321523 0.310853
v -0.310852 -3.321523 -0.310853
v -0.310853 -3.321523 0.310852
v 0.310852 -4.542582 -0.310852
v 0.310852 -4.542582 0.310853
v -0.310852 -4.542582 -0.310853
v -0.310853 -4.542582 0.310852
v 0.385952 2.202643 -0.385952
v 0.385952 2.202643 0.385952
v -0.385952 2.202643 -0.385953
v -0.385952 2.202643 0.385952
v 0.385952 2.026633 -0.385952
v 0.385952 2.026633 0.385952
v -0.385952 2.026633 -0.385953
v -0.385952 2.026633 0.385952
v 0.250030 1.790718 -0.250030
v 0.250030 1.790718 0.250030
v -0.250030 1.790718 -0.250030
v -0.250030 1.790718 0.250030
v 0.250030 -3.142318 -0.250030
v 0.250030 -3.142318 0.250030
v -0.250030 -3.142318 -0.250030
v -0.250030 -3.142318 0.250030
v 1.469619 3.954090 -2.277558
v 1.469617 3.954090 2.060410
v -1.469618 3.954090 2.060409
v -1.469618 3.954090 -2.277559
v 1.469619 5.740878 -2.277558
v 1.469617 5.740878 2.060410
v -1.469618 5.740878 2.060409
v -1.469618 5.740878 -2.277559
v -1.469618 4.847484 2.060409
v 1.469617 4.847484 2.060410
v 1.349463 5.860613 -2.277558
v 1.349462 5.860613 2.060410
v -1.349462 5.860613 -2.277559
v -0.000000 5.860613 2.060410
v -1.349462 5.860613 2.060409
v 0.051145 3.834355 -0.310852
v -0.051144 3.834355 -0.310853
v 0.232435 3.873575 -2.277558
v -0.232434 3.873575 -2.277559
v 0.137788 4.270152 -3.519928
v -0.137786 4.270152 -3.519929
v 0.041280 5.413653 -5.026823
v -0.041278 5.413653 -5.026823
v 0.051145 3.649325 -0.373349
v -0.051143 3.649325 -0.373349
v 0.232435 3.688545 -2.340055
v -0.232433 3.688545 -2.340056
v 0.137788 4.085122 -3.582425
v -0.137786 4.085122 -3.582426
v 0.041280 5.228623 -5.089319
v -0.041277 5.228623 -5.089320
vn -0.0000 -0.7980 0.6026
vn 0.0356 -0.9994 -0.0000
vn 1.0000 0.0000 0.0000
vn -0.0000 -0.0000 1.0000
vn -1.0000 -0.0000 -0.0000
vn 0.0000 0.0000 -1.0000
vn -0.0356 -0.9994 0.0000
vn 0.0000 0.0302 0.9995
vn -0.0000 -1.0000 0.0040
vn 0.9074 0.0000 -0.4202
vn 0.8167 -0.5771 0.0000
vn -0.0031 -0.0046 1.0000
vn -0.9292 0.0731 -0.3622
vn 0.0000 -0.7966 -0.6045
vn -0.9074 0.0000 -0.4202
vn 0.0000 0.9526 -0.3041
vn 0.0000 -0.4207 -0.9072
vn 0.0000 -0.9526 -0.3041
vn 0.9292 0.0731 -0.3622
vn 0.0000 0.9873 0.1590
vn -0.0000 0.7956 -0.6058
vn 0.9527 0.2419 -0.1842
vn 0.0000 0.7626 0.6469
vn -0.9527 0.2419 -0.1842
vn 0.0031 -0.0046 1.0000
vn 0.0031 0.0046 1.0000
vn -0.0031 0.0046 1.0000
vn -0.0103 -0.7227 0.6911
vn 0.0103 -0.7227 0.6911
vn 0.5847 -0.0175 0.8111
vn 0.5847 0.0175 0.8111
vn 0.0103 0.7227 0.6911
vn -0.0103 0.7227 0.6911
vn -0.5847 0.0175 0.8111
vn -0.5847 -0.0175 0.8111
vn 0.9469 0.3214 0.0000
vn 0.6026 0.7980 0.0000
vn 0.0000 -0.7980 -0.6026
vn -0.6026 -0.7980 -0.0000
vn -0.0000 0.3214 0.9469
vn 0.0000 -0.3214 -0.9469
vn -0.9469 -0.3214 -0.0000
vn 0.0000 -1.0000 -0.0000
vn -0.6026 0.7980 -0.0000
vn 0.6026 -0.7980 0.0000
vn -0.0000 0.7980 0.6026
vn 0.0000 0.7980 -0.6026
vn -0.0000 -0.3214 0.9469
vn -0.9469 0.3214 -0.0000
vn 0.9469 -0.3214 0.0000
vn 0.0000 0.3214 -0.9469
vn -0.6362 0.0000 0.7715
vn -0.0000 0.7672 0.6414
vn 0.6362 0.0000 0.7715
vn 0.0000 -0.7672 0.6414
vn -0.8167 0.5771 -0.0000
vn 0.8167 0.5771 0.0000
vn -0.8167 -0.5771 -0.0000
vn 0.0000 1.0000 0.0000
vn 0.5269 0.8499 0.0000
vn -0.5269 0.8499 -0.0000
vn 0.9986 0.0172 -0.0509
vn -0.0000 -0.3200 0.9474
vn 0.9954 -0.0308 0.0911
vn 0.0000 -0.9998 -0.0199
vn 0.0000 0.3200 -0.9474
vn 0.9974 0.0232 -0.0686
vn -0.9954 -0.0308 0.0911
vn -0.9986 0.0172 -0.0509
vn -0.9974 0.0232 -0.0686
usemtl Material.001
s off
f 53//1 51//1 67//1 69//1
f 6//2 5//2 9//2 10//2
f 1//3 5//3 6//3 2//3
f 2//4 6//4 7//4 3//4
f 3//5 7//5 8//5 4//5
f 5//6 1//6 4//6 8//6
f 9//6 13//6 82//6 78//6
f 8//7 7//7 12//7 11//7
f 5//8 8//8 94//8 93//8
f 7//9 6//9 10//9 33//9 12//9
f 16//4 34//4 91//4 92//4
f 13//10 9//10 21//10 23//10
f 10//11 9//11 78//11 79//11
f 45//12 44//12 19//12 42//12
f 22//13 24//13 28//13 26//13
f 22//14 26//14 100//14 98//14
f 11//15 15//15 24//15 22//15
f 15//16 13//16 23//16 24//16
f 25//17 26//17 30//17 29//17
f 21//18 9//18 95//18 97//18
f 23//19 21//19 25//19 27//19
f 24//20 23//20 27//20 28//20
f 29//21 30//21 32//21 31//21
f 27//22 25//22 29//22 31//22
f 28//23 27//23 31//23 32//23
f 26//24 28//24 32//24 30//24
f 43//25 45//25 42//25 20//25
f 18//26 41//26 45//26 43//26
f 41//27 17//27 44//27 45//27
f 12//28 33//28 46//28 37//28
f 33//29 10//29 40//29 46//29
f 10//30 36//30 47//30 40//30
f 36//31 14//31 39//31 47//31
f 14//32 34//32 48//32 39//32
f 34//33 16//33 38//33 48//33
f 16//34 35//34 49//34 38//34
f 35//35 12//35 37//35 49//35
f 55//36 54//36 74//36 75//36
f 1//37 2//37 63//37 62//37
f 50//38 52//38 68//38 66//38
f 52//39 53//39 69//39 68//39
f 55//4 57//4 61//4 59//4
f 57//40 55//40 75//40 77//40
f 52//41 50//41 70//41 72//41
f 53//42 52//42 72//42 73//42
f 58//43 59//43 61//43 60//43
f 54//3 55//3 59//3 58//3
f 57//5 56//5 60//5 61//5
f 56//6 54//6 58//6 60//6
f 62//3 63//3 67//3 66//3
f 65//5 64//5 68//5 69//5
f 63//4 65//4 69//4 67//4
f 64//6 62//6 66//6 68//6
f 3//44 4//44 64//44 65//44
f 51//45 50//45 66//45 67//45
f 2//46 3//46 65//46 63//46
f 4//47 1//47 62//47 64//47
f 73//5 72//5 76//5 77//5
f 72//6 70//6 74//6 76//6
f 71//4 73//4 77//4 75//4
f 70//3 71//3 75//3 74//3
f 51//48 53//48 73//48 71//48
f 56//49 57//49 77//49 76//49
f 50//50 51//50 71//50 70//50
f 54//51 56//51 76//51 74//51
f 49//52 37//52 18//52 43//52
f 48//53 38//53 20//53 42//53
f 47//54 39//54 19//54 44//54
f 46//55 40//55 17//55 41//55
f 37//55 46//55 41//55 18//55
f 40//54 47//54 44//54 17//54
f 39//53 48//53 42//53 19//53
f 38//52 49//52 43//52 20//52
f 81//5 80//5 86//5 84//5 85//5
f 79//3 78//3 82//3 83//3 87//3
f 16//56 15//56 85//56 84//56
f 13//57 14//57 83//57 82//57
f 14//4 36//4 87//4 83//4
f 12//4 35//4 86//4 80//4
f 35//4 16//4 84//4 86//4
f 36//4 10//4 79//4 87//4
f 15//6 11//6 81//6 85//6
f 11//58 12//58 80//58 81//58
f 88//59 90//59 92//59 91//59 89//59
f 14//60 13//60 88//60 89//60
f 34//4 14//4 89//4 91//4
f 15//61 16//61 92//61 90//61
f 13//6 15//6 90//6 88//6
f 99//62 97//62 105//62 107//62
f 93//63 94//63 102//63 101//63
f 95//64 93//64 101//64 103//64
f 25//14 21//14 97//14 99//14
f 9//65 5//65 93//65 95//65
f 26//4 25//4 99//4 100//4
f 11//18 22//18 98//18 96//18
f 8//65 11//65 96//65 94//65
f 101//65 102//65 104//65 103//65
f 103//18 104//18 106//18 105//18
f 105//14 106//14 108//14 107//14
f 100//66 99//66 107//66 108//66
f 97//67 95//67 103//67 105//67
f 94//68 96//68 104//68 102//68
f 98//69 100//69 108//69 106//69
f 96//70 98//70 106//70 104//70
